<?xml version="1.0" encoding="iso-8859-1"?>
<!-- Generator: Adobe Illustrator 19.0.0, SVG Export Plug-In . SVG Version: 6.00 Build 0)  -->
<svg version="1.1" id="Layer_1" xmlns="http://www.w3.org/2000/svg" xmlns:xlink="http://www.w3.org/1999/xlink" x="0px" y="0px"
	 viewBox="0 0 512 512" style="enable-background:new 0 0 512 512;" xml:space="preserve">
<path style="fill:#54CCFF;" d="M510.988,466.978c0,46.197-95.095,59.396-134.994,27.598c-29.098,23.1-90.897,23.1-119.994,0
	c-29.098,23.1-90.897,23.1-119.994,0C96.106,526.374,1.012,512.875,1.012,466.978c0-19.8,29.999-19.8,29.999,0
	c0,3.6,15.9,14.999,44.998,14.999s44.998-11.399,44.998-14.999c0-19.8,29.999-19.8,29.999,0c0,3.6,15.9,14.999,44.998,14.999
	s44.998-11.399,44.998-14.999c0-9.901,7.5-14.999,14.999-14.999c7.5,0,14.999,5.099,14.999,14.999c0,3.6,15.9,14.999,44.998,14.999
	s44.998-11.399,44.998-14.999c0-19.8,29.999-19.8,29.999,0c0,3.6,15.9,14.999,44.998,14.999c29.098,0,44.998-11.399,44.998-14.999
	C480.989,447.178,510.988,447.178,510.988,466.978z"/>
<path style="fill:#A1A7B3;" d="M450.991,376.982v28.798c-25.799,3.6-74.996-3.9-74.996-28.798c0,39.598-119.994,39.598-119.994,0
	c0,39.598-119.994,39.598-119.994,0c0,24.898-48.898,32.099-74.697,29.098c2.1-29.999,27.598-68.797,28.798-189.69
	c0-6.601,4.2-12.3,10.201-14.1l18.299-6.299l-19.498-6.601c-5.7-1.8-9.901-7.2-10.201-13.199
	c-2.699-53.097-11.7-106.594-27.298-156.693C58.609,9.899,65.808,0,76.008,0C141.104,0,202.601,17.799,256,47.197
	C372.094,111.094,450.991,235.388,450.991,376.982z"/>
<path style="fill:#979CA7;" d="M450.991,376.982v28.798c-25.799,3.6-74.996-3.9-74.996-28.798c0,39.598-119.994,39.598-119.994,0
	V47.197C372.094,111.094,450.991,235.388,450.991,376.982z"/>
<path style="fill:#4BB8E6;" d="M510.988,466.978c0,46.197-95.095,59.396-134.994,27.598c-29.098,23.1-90.897,23.1-119.994,0v-42.597
	c7.5,0,14.999,5.099,14.999,14.999c0,3.6,15.9,14.999,44.998,14.999s44.998-11.399,44.998-14.999c0-19.8,29.999-19.8,29.999,0
	c0,3.6,15.9,14.999,44.998,14.999c29.098,0,44.998-11.399,44.998-14.999C480.989,447.178,510.988,447.178,510.988,466.978z"/>
<path style="fill:#757982;" d="M390.994,376.982c0-70.5-22.88-138.221-66.164-193.94c-12.221-15.743-35.789,2.859-23.7,18.397
	c39.168,50.418,59.865,111.766,59.865,175.543c0,5.916,3.494,10.91,8.463,13.353c4.047-4.037,6.537-8.531,6.537-13.353
	c0,4.823,2.49,9.316,6.537,13.353C387.5,387.893,390.994,382.898,390.994,376.982z"/>
<path style="fill:#54CCFF;" d="M510.988,376.982c0,46.197-95.095,59.396-134.994,27.598c-29.098,23.1-90.897,23.1-119.994,0
	c-29.098,23.1-90.897,23.1-119.994,0C96.106,436.379,1.012,422.879,1.012,376.982c0-19.8,29.999-19.8,29.999,0
	c0,3.6,15.9,14.999,44.998,14.999s44.998-11.399,44.998-14.999c0-19.8,29.999-19.8,29.999,0c0,3.6,15.9,14.999,44.998,14.999
	s44.998-11.399,44.998-14.999c0-8.401,6.599-14.999,14.999-14.999s14.999,6.599,14.999,14.999c0,3.6,15.9,14.999,44.998,14.999
	s44.998-11.399,44.998-14.999c0-8.401,6.599-14.999,14.999-14.999s14.999,6.599,14.999,14.999c0,3.6,15.9,14.999,44.998,14.999
	c29.098,0,44.998-11.399,44.998-14.999C480.989,357.182,510.988,357.182,510.988,376.982z"/>
<path style="fill:#4BB8E6;" d="M510.988,376.982c0,46.197-95.095,59.396-134.994,27.598c-29.098,23.1-90.897,23.1-119.994,0v-42.597
	c8.401,0,14.999,6.599,14.999,14.999c0,3.6,15.9,14.999,44.998,14.999s44.998-11.399,44.998-14.999
	c0-8.401,6.599-14.999,14.999-14.999s14.999,6.599,14.999,14.999c0,3.6,15.9,14.999,44.998,14.999
	c29.098,0,44.998-11.399,44.998-14.999C480.989,357.182,510.988,357.182,510.988,376.982z"/>
<g>
</g>
<g>
</g>
<g>
</g>
<g>
</g>
<g>
</g>
<g>
</g>
<g>
</g>
<g>
</g>
<g>
</g>
<g>
</g>
<g>
</g>
<g>
</g>
<g>
</g>
<g>
</g>
<g>
</g>
</svg>
